<svg width="23" height="21" viewBox="0 0 23 21" fill="none" xmlns="http://www.w3.org/2000/svg">
<path fill-rule="evenodd" clip-rule="evenodd" d="M12.1262 2.52338C11.8029 2.28786 11.3642 2.28786 11.0401 2.52338L5.11793 6.83105V17.6113C5.11793 18.1211 5.5317 18.5349 6.04153 18.5349H7.88873V12.9933C7.88873 11.4629 9.12912 10.2225 10.6595 10.2225H12.5067C14.0371 10.2225 15.2775 11.4629 15.2775 12.9933V18.5349H17.1247C17.6346 18.5349 18.0483 18.1211 18.0483 17.6113V6.83105L12.1262 2.52338ZM19.8955 8.17397L21.1997 9.1225C21.6116 9.42268 22.1898 9.33124 22.4899 8.91839C22.7901 8.50646 22.6987 7.92829 22.2858 7.62812L13.2133 1.02992C12.2407 0.323361 10.9255 0.323361 9.95298 1.02992L0.880449 7.62812C0.467599 7.92829 0.377086 8.50646 0.676333 8.91839C0.976503 9.33124 1.55468 9.42268 1.9666 9.1225L3.27073 8.17397V17.6113C3.27073 19.1417 4.51112 20.3821 6.04153 20.3821H17.1247C18.6551 20.3821 19.8955 19.1417 19.8955 17.6113V8.17397ZM13.4303 18.5349V12.9933C13.4303 12.4835 13.0166 12.0697 12.5067 12.0697H10.6595C10.1497 12.0697 9.73593 12.4835 9.73593 12.9933V18.5349H13.4303Z" fill="#FFE24B"/>
</svg>
