<svg width="28" height="28" viewBox="0 0 28 28" fill="none" xmlns="http://www.w3.org/2000/svg">
<g>
<path fill-rule="evenodd" clip-rule="evenodd" d="M3.5 8.45831C3.5 7.00844 4.67512 5.83331 6.125 5.83331H21.875C23.3249 5.83331 24.5 7.00844 24.5 8.45831V18.9583C24.5 20.4082 23.3249 21.5833 21.875 21.5833H6.125C4.67512 21.5833 3.5 20.4082 3.5 18.9583V8.45831ZM6.125 7.58331C5.642 7.58331 5.25 7.97531 5.25 8.45831V9.33331H22.75V8.45831C22.75 7.97531 22.358 7.58331 21.875 7.58331H6.125ZM22.75 11.0833H5.25V18.9583C5.25 19.4413 5.642 19.8333 6.125 19.8333H21.875C22.358 19.8333 22.75 19.4413 22.75 18.9583V11.0833ZM7 17.2083C7 16.7253 7.392 16.3333 7.875 16.3333H13.125C13.608 16.3333 14 16.7253 14 17.2083C14 17.6913 13.608 18.0833 13.125 18.0833H7.875C7.392 18.0833 7 17.6913 7 17.2083Z" fill="white"/>
</g>
</svg>
