<svg width="28" height="28" viewBox="0 0 28 28" fill="none" xmlns="http://www.w3.org/2000/svg">
<g>
<path fill-rule="evenodd" clip-rule="evenodd" d="M14 24.5C19.799 24.5 24.5 19.799 24.5 14C24.5 8.20101 19.799 3.5 14 3.5C8.20101 3.5 3.5 8.20101 3.5 14C3.5 19.799 8.20101 24.5 14 24.5ZM6.957 19.4167C5.80216 17.9173 5.11538 16.0389 5.11538 14C5.11538 9.09316 9.09316 5.11538 14 5.11538C18.9068 5.11538 22.8846 9.09316 22.8846 14C22.8846 16.0393 22.1976 17.918 21.0423 19.4175C20.5152 18.9395 19.8416 18.5938 18.9551 18.2747C18.8223 18.2269 18.6862 18.1799 18.5163 18.1228L18.1025 17.9843C17.0963 17.6448 16.7403 17.4291 16.6575 17.1562C16.6547 17.147 16.6502 17.13 16.6439 17.0969C16.6081 16.9079 16.6163 16.7011 16.6898 16.5296C16.7332 16.4284 16.7994 16.3383 16.8986 16.2554C18.0144 15.2481 18.5769 14.1128 18.5769 12.5643C18.5769 9.86646 16.4661 7.80769 14 7.80769C11.517 7.80769 9.42308 9.83138 9.42308 12.5643C9.42308 14.1083 9.97096 15.2104 11.047 16.2237C11.1855 16.3405 11.255 16.426 11.3023 16.5156C11.3938 16.6891 11.4055 16.8903 11.3654 17.0755C11.3625 17.0888 11.3602 17.0987 11.3587 17.105C11.3568 17.1126 11.3563 17.1147 11.3578 17.1107C11.2781 17.3938 10.948 17.5972 10.0176 17.915L9.541 18.0759C9.3422 18.1434 9.18417 18.1988 9.02949 18.2558C8.15769 18.5776 7.48404 18.933 6.957 19.4167ZM8.05699 20.6044C9.63121 22.0219 11.7149 22.8846 14 22.8846C16.2846 22.8846 18.3678 22.0223 19.9419 20.6054C19.5894 20.293 19.1009 20.044 18.408 19.7946C18.2875 19.7512 18.1613 19.7077 18.0012 19.6539L17.5861 19.5149C16.0834 19.0079 15.4069 18.5981 15.1158 17.6385C15.0974 17.5814 15.0762 17.5001 15.0568 17.3977C14.9663 16.92 14.9867 16.4024 15.2052 15.8929C15.3474 15.5615 15.5658 15.2641 15.8391 15.0364C16.6089 14.3409 16.9615 13.6292 16.9615 12.5643C16.9615 10.7678 15.5828 9.42308 14 9.42308C12.397 9.42308 11.0385 10.7361 11.0385 12.5643C11.0385 13.6281 11.383 14.3212 12.1159 15.0137C12.3794 15.2319 12.5844 15.4839 12.7311 15.762C13.0244 16.3181 13.0578 16.8924 12.9442 17.4173C12.921 17.5247 12.8954 17.6102 12.8953 17.6008C12.641 18.5454 11.9832 18.9506 10.5398 19.4437L10.06 19.6057C9.8736 19.6689 9.72803 19.7199 9.58884 19.7713C8.90391 20.0241 8.41253 20.2823 8.05699 20.6044Z" fill="white"/>
</g>
</svg>
